<?xml version="1.0" standalone="no"?>
<!DOCTYPE svg PUBLIC "-//W3C//DTD SVG 20010904//EN"
 "http://www.w3.org/TR/2001/REC-SVG-20010904/DTD/svg10.dtd">
<svg version="1.0" xmlns="http://www.w3.org/2000/svg"
 width="500.000000pt" height="500.000000pt" viewBox="0 0 500.000000 500.000000"
 preserveAspectRatio="xMidYMid meet">
<metadata>
Created by potrace 1.16, written by Peter Selinger 2001-2019
</metadata>
<g transform="translate(0.000000,500.000000) scale(0.100000,-0.100000)"
fill="#000000" stroke="none">
<path d="M2812 4783 c-19 -4 -21 -7 -11 -19 13 -16 34 -19 24 -4 -7 12 12 12
40 0 17 -8 16 -9 -10 -11 -56 -4 -150 3 -165 13 -11 7 -10 8 8 5 12 -3 22 -1
22 4 0 12 -17 11 -60 -2 -19 -6 -107 -12 -195 -14 -108 -3 -178 -9 -215 -20
-30 -9 -82 -19 -115 -22 -33 -3 -69 -11 -80 -18 -11 -7 -46 -18 -78 -25 -32
-6 -61 -18 -64 -26 -3 -8 -13 -14 -23 -14 -9 0 -25 -9 -35 -20 -13 -14 -31
-20 -62 -20 -35 0 -51 -6 -74 -27 -48 -45 -82 -72 -125 -101 -23 -15 -60 -51
-83 -79 -23 -29 -46 -53 -52 -53 -6 0 -9 -9 -6 -20 3 -12 -1 -21 -12 -25 -9
-3 -40 -38 -69 -76 -55 -73 -96 -153 -153 -294 -14 -36 -19 -191 -7 -223 4
-13 17 -107 29 -210 25 -234 21 -212 74 -362 39 -111 57 -150 68 -150 5 0 16
-8 24 -17 12 -16 13 -10 7 42 -4 33 -7 65 -8 71 -1 7 -8 19 -15 28 -7 8 -10
19 -7 24 3 5 -1 17 -8 27 -10 14 -11 28 -3 59 5 23 10 84 11 138 1 58 7 102
14 111 7 8 10 22 6 31 -3 9 -1 16 5 16 6 0 11 -5 11 -11 0 -6 6 -9 13 -6 12 4
13 7 16 43 1 10 7 14 16 10 9 -3 16 1 16 9 1 8 3 20 4 25 1 6 3 15 4 21 0 5 5
8 10 5 5 -3 12 2 15 11 6 15 8 15 16 3 7 -11 10 -6 10 20 1 34 6 91 14 157 10
80 104 143 251 169 22 3 46 11 53 17 9 7 19 4 35 -11 l23 -22 17 21 c13 15 28
19 60 18 23 -1 58 3 77 8 44 14 73 13 83 -1 5 -8 10 -6 16 4 6 8 13 11 17 8 3
-4 21 -1 38 6 26 11 34 11 44 0 6 -7 12 -18 12 -24 0 -18 14 -11 58 33 39 38
48 42 92 42 26 0 48 -2 48 -5 -2 -23 4 -40 12 -40 5 0 7 6 4 14 -4 11 0 13 15
9 12 -3 21 -1 21 5 0 6 16 9 36 7 26 -2 41 2 56 17 18 18 21 18 37 4 10 -9 21
-13 24 -9 4 3 7 1 7 -7 0 -9 12 -11 49 -6 30 4 52 2 56 -4 3 -5 12 -10 18 -10
8 0 9 3 1 8 -6 4 -13 17 -16 30 -5 18 0 26 22 37 16 8 44 16 62 16 18 1 25 3
16 6 -19 5 -25 23 -9 23 5 0 17 3 27 7 11 4 15 2 11 -4 -4 -6 2 -18 13 -28 18
-16 19 -16 32 4 8 13 23 21 39 21 14 0 28 3 31 6 3 3 34 7 69 9 69 3 103 -12
143 -65 11 -14 64 -68 119 -120 54 -53 97 -103 96 -110 -5 -24 11 -71 21 -65
6 3 10 2 10 -3 0 -13 66 -82 79 -82 5 0 13 -4 16 -10 21 -34 49 -221 47 -312
0 -21 3 -38 8 -38 6 0 6 -10 0 -25 -9 -24 4 -233 15 -244 17 -16 35 88 39 219
7 233 -58 721 -109 823 -8 17 -15 36 -15 44 0 7 -5 13 -11 13 -6 0 -9 7 -5 15
3 8 1 15 -4 15 -11 0 -1 32 14 42 7 4 5 13 -5 25 -20 22 -33 57 -19 48 6 -3
10 3 10 15 0 17 -4 20 -20 15 -14 -4 -20 -2 -20 9 0 10 -6 13 -15 10 -8 -4
-15 -1 -15 5 0 6 -12 16 -26 21 -14 6 -23 14 -20 19 10 15 -63 81 -87 79 -52
-4 -177 80 -177 120 0 16 -75 73 -116 89 -14 5 -16 3 -11 -11 6 -14 3 -16 -16
-11 -12 4 -27 13 -32 20 -15 19 -55 29 -55 14 0 -7 -11 -2 -25 11 -13 12 -22
26 -20 30 4 7 -48 22 -64 19 -3 -1 -16 -4 -29 -6z"/>
<path d="M3030 3341 c0 -4 -31 -9 -68 -10 -114 -3 -156 -10 -165 -26 -4 -8
-14 -15 -21 -15 -8 0 -16 -7 -20 -15 -3 -8 -1 -15 4 -15 5 0 16 -8 26 -17 14
-15 32 -17 92 -15 41 1 102 9 136 16 34 8 97 17 141 21 109 8 131 13 117 27
-34 34 -242 76 -242 49z"/>
<path d="M1940 3291 c0 -5 -9 -7 -19 -4 -10 3 -32 -2 -47 -11 -20 -11 -24 -15
-11 -16 20 0 23 -16 5 -23 -7 -2 5 -8 27 -12 22 -4 50 -13 61 -21 15 -9 61
-13 145 -14 146 -1 216 7 238 29 15 15 13 19 -22 48 -32 28 -45 32 -75 28 -75
-10 -292 -13 -286 -4 3 5 0 9 -5 9 -6 0 -11 -4 -11 -9z"/>
<path d="M2121 3162 c-9 -3 -4 -9 15 -18 26 -13 27 -13 4 -9 -19 4 -17 1 8
-11 24 -10 32 -20 28 -30 -3 -9 -6 -18 -6 -20 0 -2 -31 -4 -68 -4 -71 0 -142
-19 -221 -59 -23 -12 -41 -27 -39 -33 4 -11 13 -15 83 -32 l29 -7 -19 21 c-19
21 -19 22 5 41 37 28 67 25 75 -9 3 -15 17 -40 31 -56 37 -39 90 -34 122 11
12 18 22 38 22 45 0 7 4 19 9 27 7 11 18 7 55 -19 25 -19 46 -36 46 -40 0 -4
-21 -12 -47 -17 -46 -11 -45 -11 22 -6 75 6 97 16 88 39 -3 8 0 14 6 14 6 0
11 5 11 12 0 6 7 19 15 28 14 16 14 18 0 24 -11 4 -14 2 -9 -6 4 -6 -5 -3 -19
8 -15 10 -27 22 -27 27 0 4 -5 7 -10 7 -6 0 -20 9 -32 20 -12 11 -18 20 -13
20 5 0 0 7 -12 15 -22 15 -125 27 -152 17z"/>
<path d="M2965 3161 c-22 -4 -69 -21 -105 -38 -36 -18 -77 -35 -92 -38 -16 -4
-28 -10 -28 -15 0 -4 -9 -17 -20 -30 -26 -30 -14 -100 16 -100 11 0 12 4 5 19
-10 18 5 71 20 71 13 0 31 -29 24 -40 -3 -5 6 -15 20 -20 34 -13 105 -13 105
0 0 10 -21 14 -47 11 -22 -3 -14 24 15 52 31 30 52 35 52 12 0 -9 7 -29 15
-45 13 -26 13 -29 -3 -33 -9 -3 14 -4 53 -4 67 2 70 3 92 36 13 19 23 47 23
62 0 34 5 35 61 13 32 -13 40 -21 36 -36 -4 -15 -2 -18 11 -12 9 4 34 10 55
13 21 3 38 11 38 16 1 6 -25 18 -57 28 -33 10 -81 25 -107 34 -52 17 -182 12
-201 -7 -13 -13 -26 -13 -26 0 0 6 6 10 13 10 6 0 26 7 42 16 17 9 59 20 95
24 l65 7 -65 0 c-36 0 -83 -2 -105 -6z"/>
<path d="M2777 2217 c-2 -6 -30 -10 -65 -10 -34 0 -62 -4 -62 -9 0 -11 -58
-10 -62 1 -1 6 -42 11 -91 12 -95 3 -83 8 -169 -74 -11 -10 -27 -16 -37 -12
-11 3 -26 -4 -40 -19 -43 -45 -4 -73 57 -42 15 8 43 15 62 17 22 1 43 11 57
27 21 24 24 25 202 29 170 4 184 3 215 -16 18 -12 48 -21 65 -21 17 0 46 -6
64 -14 27 -11 35 -11 45 0 6 7 12 18 12 23 0 13 -33 31 -57 31 -11 0 -39 13
-64 28 -60 38 -127 63 -132 49z"/>
<path d="M3416 1738 c-22 -11 -46 -27 -53 -34 -8 -7 -30 -13 -49 -12 -20 1
-39 -4 -44 -12 -5 -8 -32 -15 -67 -17 -32 -2 -59 -8 -61 -13 -2 -6 -10 -10
-17 -10 -8 0 -18 -6 -22 -14 -15 -27 -114 -66 -155 -62 -23 2 -41 -1 -46 -8
-8 -15 -85 -46 -124 -51 -15 -2 -37 -6 -48 -10 -24 -8 -27 10 -5 32 8 8 12 20
8 26 -4 7 -10 3 -16 -11 -12 -27 -19 -27 -42 -2 -18 20 -18 20 -32 -7 -16 -30
-10 -41 12 -23 18 15 27 10 16 -9 -13 -20 -63 -6 -59 17 4 26 -35 21 -47 -5
-6 -14 -18 -23 -32 -23 -13 0 -23 -4 -23 -10 0 -6 -9 -6 -22 -1 -13 5 -32 5
-43 1 -19 -7 -19 -7 0 -17 11 -6 40 -14 65 -19 52 -9 59 -11 63 -14 6 -6 68
-7 72 -1 2 4 18 6 35 3 21 -3 30 -9 26 -18 -7 -18 -1 -18 30 3 27 17 84 24 84
10 0 -5 4 -6 8 -3 5 3 9 -2 9 -10 0 -10 -4 -11 -11 -4 -13 13 -46 13 -46 0 0
-5 -8 -7 -17 -3 -13 4 -12 0 5 -15 13 -11 19 -23 13 -26 -5 -4 -12 -2 -15 3
-3 5 -20 7 -38 5 -18 -1 -44 -4 -58 -5 -18 -1 -20 -3 -7 -6 9 -2 15 -8 12 -13
-3 -5 15 -7 40 -4 29 2 44 0 40 -6 -3 -6 -12 -10 -18 -10 -7 0 -21 -8 -32 -17
-15 -12 -16 -14 -3 -10 9 3 19 1 21 -6 3 -9 9 -8 22 3 13 10 16 11 11 2 -7
-11 -4 -11 12 -1 11 7 18 18 16 24 -3 7 15 10 53 10 62 -1 120 17 140 43 7 9
30 17 50 17 37 2 103 23 113 37 8 10 106 58 119 58 6 0 11 4 11 10 0 5 18 28
40 50 22 22 40 46 40 53 1 7 14 28 31 47 l30 35 -6 -30 c-4 -16 -14 -55 -22
-85 -8 -30 -17 -77 -20 -105 -7 -85 -41 -226 -98 -407 -29 -95 -68 -222 -85
-283 -18 -60 -40 -126 -50 -146 -11 -20 -37 -103 -60 -185 -73 -265 -80 -289
-93 -299 -10 -7 -12 -29 -9 -77 l4 -68 1014 0 1014 0 0 489 0 490 -27 14 c-16
8 -56 30 -91 50 -98 57 -339 176 -427 212 -44 18 -117 49 -162 69 -45 20 -85
36 -89 36 -9 0 -110 47 -290 136 -127 62 -260 114 -295 114 -17 0 -139 123
-139 140 0 15 -21 11 -64 -12z"/>
<path d="M1713 1642 c-25 -39 -40 -51 -75 -61 -56 -16 -196 -92 -274 -147 -34
-24 -66 -44 -72 -44 -5 0 -17 -11 -26 -24 -8 -14 -36 -38 -60 -55 -50 -34
-329 -179 -393 -204 -23 -9 -61 -25 -85 -36 -24 -11 -135 -58 -248 -105 -113
-46 -254 -106 -315 -132 -60 -26 -122 -52 -137 -58 l-28 -11 0 -382 0 -383
1110 0 c611 0 1110 2 1110 4 0 2 -6 21 -14 43 -8 22 -37 133 -66 249 -54 220
-112 409 -162 528 -83 197 -167 482 -168 568 -1 18 -15 93 -33 166 l-32 133
-32 -49z"/>
<path d="M1956 1120 c9 -36 28 -70 88 -163 29 -45 83 -133 120 -196 38 -63 82
-133 100 -155 82 -107 137 -160 123 -120 -6 15 -3 14 13 -5 24 -28 27 -49 3
-30 -15 13 -15 12 -2 -9 8 -13 21 -21 31 -19 11 3 15 0 11 -9 -3 -8 5 -16 21
-20 15 -3 31 -14 36 -23 9 -13 10 -13 9 -1 -3 21 11 51 21 45 5 -3 6 8 4 25
-3 19 -1 30 7 30 8 0 7 5 -2 17 -8 9 -9 14 -2 10 6 -4 13 -4 16 0 2 5 2 3 1
-4 -4 -16 13 -26 21 -13 5 8 11 7 21 -1 7 -6 11 -15 8 -20 -3 -5 1 -9 9 -9 10
0 13 7 10 20 -3 11 0 21 6 21 6 1 16 3 21 4 6 1 16 3 23 4 8 1 6 6 -5 15 -10
7 -14 17 -10 21 4 5 1 5 -7 0 -8 -5 -27 -9 -42 -10 -21 -2 -26 1 -22 14 4 13
3 13 -5 2 -7 -9 -19 -11 -38 -7 -16 4 -26 4 -22 0 4 -4 3 -13 -3 -21 -12 -14
-33 -18 -25 -4 3 4 -7 6 -22 4 -25 -4 -26 -3 -9 10 13 11 14 16 5 20 -7 2 -16
4 -19 3 -4 0 -15 6 -25 15 -11 9 -31 19 -46 23 -16 3 -28 13 -28 22 0 8 -5 12
-10 9 -6 -3 -13 1 -16 10 -9 23 -62 74 -69 67 -3 -4 -3 1 0 9 3 9 -1 22 -9 29
-9 7 -14 16 -11 20 2 4 -11 22 -30 40 -19 19 -35 40 -35 47 0 7 -5 13 -10 13
-9 0 -40 40 -121 155 -11 17 -36 55 -56 85 -19 30 -31 44 -27 30z"/>
</g>
</svg>
